# xmcd
#
# Track frame offsets: 
#        150
#        19431
#        37092
#        56015
#        72962
#        91946
#        111204
#
# Disc length: 1755 seconds
#
# Revision: 0
# Processed by: cddbd v1.5.2PL0 Copyright (c) Steve Scherf et al.
# Submitted via: ExactAudioCopy v1.0b3
#
DISCID=5f06d907
DTITLE=林峯 - LET's GET WET
DYEAR=2009
DGENRE=Pop
TTITLE0=Let's Get Wet
TTITLE1=換個方式愛你
TTITLE2=得寵
TTITLE3=如果時間來到
TTITLE4=值得流淚
TTITLE5=愛鬥大
TTITLE6=Illusion
EXTD=
EXTT0=
EXTT1=
EXTT2=
EXTT3=
EXTT4=
EXTT5=
EXTT6=
PLAYORDER=
